<svg width="152" height="163" viewBox="0 0 152 163" fill="none" xmlns="http://www.w3.org/2000/svg">
<g clip-path="url(#clip0_1989_7486)">
<path d="M150.764 83.2871C151.225 89.3012 151.452 95.3992 150.479 101.38C150.026 104.425 149.296 107.427 148.541 110.413C147.442 114.851 146.318 119.296 144.532 123.515C141.738 130.309 138.274 137.053 133.091 142.396C130.507 144.879 127.613 146.842 124.577 148.721C121.54 150.574 118.135 151.698 114.822 152.957C108.212 155.834 101.368 158.207 94.3387 159.91C85.7663 161.89 76.9507 162.787 68.1518 162.863C60.955 162.762 53.8002 161.361 46.9557 159.206C42.3927 157.763 38.0814 155.699 33.8623 153.493C28.947 151.027 24.1408 148.243 20.2488 144.342C16.8936 141.063 13.5888 137.657 11.1899 133.623C10.0156 131.668 9.01745 129.613 8.02768 127.558C6.34172 124.035 4.58028 120.538 3.35565 116.822C-0.796339 104.869 -0.670521 91.8679 1.871 79.5881C4.27831 68.0632 8.68194 56.8906 15.4677 47.1523C19.0913 41.9602 23.5452 37.3636 28.4773 33.3626C32.1679 30.3514 36.0683 27.5415 40.2874 25.2851C52.433 18.9942 67.5143 16.696 81.1362 16.545C85.8418 16.503 90.5138 17.0483 95.1104 18.0212C101.259 19.1368 107.189 21.2422 112.708 24.1108C118.194 27.1221 123.243 30.8463 127.898 34.9899C132.487 38.9657 136.714 43.4364 140.136 48.4272C147.04 58.7359 149.774 71.1331 150.764 83.2871Z" fill="white"/>
<path d="M149.413 101.206L149.412 101.214L149.411 101.221C148.967 104.207 148.249 107.163 147.495 110.149L147.493 110.154C146.392 114.6 145.286 118.965 143.538 123.094L143.533 123.105C140.761 129.849 137.363 136.437 132.329 141.631C129.832 144.028 127.021 145.939 124.01 147.802C121.566 149.294 118.881 150.292 116.094 151.328C115.546 151.532 114.994 151.737 114.439 151.948L114.415 151.957L114.391 151.967C107.834 154.821 101.051 157.173 94.0908 158.86C85.6118 160.817 76.8817 161.708 68.155 161.783C61.0904 161.683 54.0455 160.307 47.2799 158.176C42.8083 156.762 38.5635 154.734 34.3624 152.537L34.3544 152.533L34.3463 152.529C29.4581 150.076 24.7788 147.354 21.0128 143.58L21.0128 143.58L21.0032 143.571C17.6499 140.293 14.4375 136.973 12.1176 133.071L12.115 133.067C10.9703 131.162 9.99237 129.15 9.00071 127.091C8.79696 126.665 8.59291 126.242 8.38949 125.819C6.89492 122.715 5.43459 119.682 4.38071 116.484L4.37801 116.476L4.37518 116.468C0.304625 104.749 0.41355 91.9561 2.92767 79.8079C5.31017 68.4023 9.66326 57.3703 16.3528 47.7699C19.9103 42.6725 24.2913 38.1481 29.1572 34.2008L29.1596 34.1989C32.8169 31.2148 36.6559 28.4519 40.7901 26.2402C52.7261 20.0598 67.6155 17.7743 81.147 17.6242C85.7625 17.5832 90.3554 18.1179 94.8869 19.0771L94.9022 19.0804L94.9177 19.0832C100.948 20.1773 106.772 22.243 112.199 25.0628C117.597 28.0271 122.578 31.6987 127.181 35.7961L127.186 35.8008L127.192 35.8055C131.725 39.7343 135.884 44.1361 139.243 49.0324C145.997 59.1211 148.705 71.3055 149.688 83.3728C150.148 89.3678 150.365 95.359 149.413 101.206Z" stroke="#001D4C" stroke-opacity="0.2" stroke-width="2.15859"/>
<path d="M134.155 99.7524C135.79 102.017 136.243 105.028 135.874 107.754C135.514 110.422 133.912 112.737 131.89 114.448C131.412 114.909 130.045 115.865 128.602 116.562C128.761 116.989 128.887 117.417 128.971 117.686C130.909 122.97 127.319 127.902 123.989 131.71C121.942 134.101 120.005 136.617 118.512 139.385C117.79 140.786 117.455 142.371 116.599 143.705C114.418 147.085 110.057 146.791 106.81 145.24C104.487 144.166 102.373 142.656 100.411 141.021C99.4208 140.157 98.54 139.083 97.3825 138.446C95.3107 138.991 93.1466 139.142 90.9994 138.882C88.9443 138.563 86.8474 138.538 84.8175 138.085C83.098 137.632 81.3365 137.414 79.5919 137.045C77.7717 136.483 75.9599 135.854 74.0475 135.703C69.7361 135.09 65.2486 135.065 61.0799 133.765C58.5635 133.027 56.2485 131.802 53.9754 130.511C51.2325 129.034 48.6575 127.348 46.4431 125.142C43.3312 122.358 39.4728 120.479 36.7803 117.216C34.3813 114.716 32.7457 111.638 31.2191 108.56C30.5145 107.016 29.9022 105.414 29.4828 103.77C29.0215 101.958 29.0886 99.8698 29.0047 98.1C28.9544 97.3954 28.8538 96.6992 28.686 96.0114C24.9786 93.3441 22.3616 89.0998 20.7595 84.8723C19.6942 82.0708 19.7194 79.0428 20.1975 76.1154C20.4743 73.9681 20.7762 71.6699 21.2292 69.6065C21.6402 67.8031 21.7073 65.9494 21.5647 64.104C21.5144 63.4246 21.4389 62.7452 21.3047 62.0742C21.2879 61.9735 21.2544 61.8225 21.2124 61.6548C20.5162 61.3947 19.7697 61.2857 19.0651 61.0341C15.2319 59.9017 14.737 57.0247 13.4117 53.7702C10.4424 49.6014 9.40232 44.4932 8.77323 39.5025C7.93445 30.3345 8.77323 20.504 13.5543 12.46C15.7435 9.13004 18.9309 6.99953 22.2777 10.3714C24.2824 12.2084 25.507 14.708 26.3542 17.2495C28.1743 21.7286 30.0868 26.3587 33.2238 30.0745C34.4401 31.3998 35.6395 32.616 37.1242 33.4968C37.6107 33.178 38.1056 32.8593 38.5921 32.5238C40.8484 30.9552 43.4822 30.1248 46.116 29.437C47.9445 29.0009 49.7563 28.464 51.61 28.1285C54.1012 27.7595 56.5924 27.3568 59.1004 27.1304C61.5748 26.9962 64.066 26.9039 66.5404 26.9626C71.0111 27.1807 75.4399 28.1705 79.6086 29.7977C80.4642 27.0717 81.3365 24.3372 81.5127 21.4686C81.9908 17.6018 82.0076 13.7182 81.9069 9.82624C81.8566 7.77121 81.5966 5.60715 82.5108 3.68633C84.2891 -0.507597 88.3823 0.876399 91.1839 3.17467C92.3162 4.1225 93.2557 5.26325 94.1196 6.44593C97.9361 12.2 101.216 18.6335 101.803 25.6122C101.937 26.9794 102.004 28.3634 101.912 29.739C101.811 31.5256 101.434 33.2954 101.518 35.0904C101.711 36.7093 102.449 38.2359 102.382 39.8967C102.491 43.9229 100.62 47.6722 98.6155 51.0525C97.6258 52.663 96.4598 54.156 95.2352 55.5568C95.101 55.691 94.95 55.8588 94.7907 56.0433C95.4365 57.3434 96.0656 58.8448 96.1411 59.0042C99.4291 66.5113 101.115 73.8675 98.6407 81.9198C100.52 82.918 102.516 83.6813 104.336 84.7969C107.221 86.6003 109.998 88.5882 112.623 90.7438C114.695 92.5892 116.557 94.6777 118.151 96.9425C119.09 98.251 119.963 99.635 120.709 101.078C121.741 99.6014 123.125 98.3432 124.794 97.6638C126.379 97.1102 128.141 96.6992 129.818 97.0264C131.521 97.4038 133.14 98.3265 134.155 99.7524Z" fill="#008FFF"/>
<path d="M28.8322 40.316C29.1174 39.8463 28.7567 39.2004 28.2115 39.192C25.41 36.8602 22.7259 33.9496 22.0297 30.2422C21.56 27.8013 21.6606 25.2934 21.107 22.8693C20.5618 20.5794 18.3223 18.4656 16.2253 20.5794C14.6903 22.2653 14.078 24.5804 13.5999 26.7612C12.7947 30.2506 12.7947 33.8825 13.5328 37.3803C14.4387 41.7419 16.3008 46.2211 19.5637 49.3665C20.2515 49.9704 20.8889 50.784 21.8032 51.0189C22.3904 51.086 22.7678 50.5576 22.9691 50.0711C23.2543 49.4923 23.5227 48.9052 23.7827 48.3264C24.546 46.6908 25.2003 45.0468 26.1817 43.5118C26.752 42.673 27.4566 41.9181 28.1277 41.1464C28.3541 40.8948 28.6477 40.618 28.8322 40.316ZM86.029 35.6943C86.1464 36.206 86.6413 36.5163 86.9517 36.9189C87.5808 37.6235 88.1092 38.4203 88.6628 39.1836C89.2248 40.0224 89.7281 40.9032 90.181 41.809C90.5501 42.4381 90.7178 43.4363 91.5398 43.6124C92.0934 43.6963 92.4289 43.2014 92.6219 42.7569C93.0916 41.8678 93.5781 40.9786 93.9891 40.056C95.5408 36.4828 96.4719 32.5824 96.5222 28.6737C96.4719 25.0837 96.1699 17.9959 93.4271 15.5047C92.7057 14.7414 91.5398 14.1962 90.5584 14.8002C88.9312 16.0583 89.2667 18.776 89.208 20.6213C89.1996 22.4499 89.1409 24.2784 88.8976 26.0818C88.5202 28.6653 87.8659 31.1313 86.6833 33.5051C86.44 33.9916 86.0626 34.5787 85.727 35.0736C85.5173 35.342 85.6851 35.753 86.029 35.6943ZM33.8398 117.023C33.8314 117.006 33.823 116.998 33.8146 116.981C33.8062 116.964 33.7895 116.947 33.7727 116.922C33.7978 116.964 33.8146 116.989 33.8398 117.023ZM97.9733 106.144C97.6462 102.78 96.9332 99.4504 95.7505 96.2798C94.8698 93.6627 93.4271 91.247 92.7645 88.5545C92.4876 87.2293 92.5967 85.8704 92.5547 84.52C92.4876 82.2553 92.2612 79.9822 91.7327 77.7845C90.3487 71.7033 86.851 67.3333 82.4809 63.0974C80.8118 61.4366 79.2348 59.6919 77.4734 58.115C74.0595 55.1457 70.4612 52.361 67.5002 48.9052C64.3212 45.2313 61.7797 40.7102 61.3016 35.8117C61.0835 33.438 62.0733 31.1229 61.8552 28.7575C61.5532 26.107 58.3994 26.9458 56.638 27.4406C54.9352 27.8768 53.4841 28.9756 52.3769 30.3177C47.9314 35.191 49.8019 39.3346 48.8876 45.0971C48.6024 47.5463 47.9565 49.8949 46.8577 52.1093C45.4318 54.7515 43.662 57.2175 41.6824 59.4739C36.071 65.7899 29.3187 70.873 27.3811 79.5963C26.4752 83.2031 26.752 87.0028 27.7921 90.5508C28.4128 92.8323 29.5452 94.9629 30.9963 96.8417C30.384 96.7579 29.7046 96.6992 29.2432 96.7914C29.1761 96.5901 29.0923 96.4559 28.9832 96.4307C28.4632 96.3972 28.5219 97.2108 28.4632 97.5883C28.1109 100.759 28.2283 104.022 29.1342 107.092C30.1911 110.589 31.8267 113.928 33.8146 116.981C34.0243 117.308 34.2508 117.627 34.494 117.937C34.2088 119.221 33.9237 120.512 33.823 121.829C33.6552 123.809 33.9656 125.788 33.8566 127.768C33.6385 130.032 33.0597 132.297 32.0364 134.335C30.5853 137.238 28.3793 140.24 28.8574 143.654C29.5368 147.395 33.6552 149.954 37.2117 150.407C40.1223 150.901 43.0832 150.373 45.8931 149.626C49.4244 148.695 52.5279 147.32 54.6333 144.116C56.5121 141.39 57.6277 138.278 58.4581 135.09C60.79 136.684 63.7844 136.986 66.5524 137.171C66.7789 137.171 67.0389 137.179 67.3241 137.187C67.257 137.355 67.1899 137.514 67.1144 137.682C65.9569 140.828 64.7155 144.51 66.5524 147.639C68.3222 150.188 71.6019 151.178 74.588 151.22C76.3578 151.229 78.1276 151.044 79.8807 150.759C81.2563 150.532 82.6487 150.23 83.8901 149.593C84.7373 149.199 85.4838 148.645 86.1884 148.033C88.0253 146.481 89.6693 144.585 90.3236 142.228C91.5734 138.06 91.5063 133.589 92.907 129.445C94.1401 126.04 95.675 122.752 96.7151 119.279C97.9398 115.035 98.292 110.539 97.9733 106.144ZM114.816 137.045C113.642 136.617 112.451 136.281 111.285 135.812C109.7 135.308 108.324 134.369 106.848 133.639C105.522 133.019 104.038 132.708 102.57 132.733C100.045 132.91 97.2687 134.335 96.5641 136.927C96.4216 137.238 96.0609 140.266 96.8913 139.41C97.0339 138.907 97.1261 138.37 97.3274 137.875C97.0339 140.652 98.5521 143.973 100.481 145.927C102.025 147.337 103.87 148.402 105.908 149.039C107.343 149.559 108.827 149.954 110.345 150.071C113.08 150.331 115.965 149.945 116.896 146.942C117.24 145.29 116.947 143.57 117.148 141.893C117.458 139.989 116.846 137.8 114.816 137.045Z" fill="#E8F4FD"/>
<path d="M34.9417 61.5208C33.2054 60.9923 30.4375 62.435 29.5483 63.9449C28.8521 65.5218 30.0181 66.8135 31.6369 66.8135C32.9538 66.8974 34.363 66.587 35.3527 65.6728C36.7871 64.4733 37.0219 62.1247 34.9417 61.5208ZM84.2791 56.379C83.2809 55.9261 82.1234 55.9932 81.1001 56.3203C80.3787 56.4126 79.6406 56.6139 79.0954 57.1255C77.2249 59.1218 79.3974 60.4471 81.3937 60.6149C82.4841 60.7407 83.7171 60.5729 84.5475 59.8013C85.6631 58.9038 85.7302 56.9829 84.2791 56.379Z" fill="#FFC2BF"/>
<path d="M36.5346 53.3428C35.3603 55.272 36.0984 58.7194 38.5309 59.2143C41.4918 59.6085 42.5738 56.5469 41.6596 54.148C40.8879 51.7743 37.8934 51.0613 36.5346 53.3428ZM78.348 51.8833C78.0796 49.2076 75.0852 48.3352 73.4076 50.3819C72.1578 52.093 72.6778 55.1378 74.7413 55.9598C77.3499 56.614 78.6835 54.19 78.348 51.8833Z" fill="black"/>
<path d="M69.9052 87.3636C68.3954 88.2443 66.6423 88.6553 64.8977 88.5966C62.5574 88.5043 60.7037 86.9442 59.5043 85.0318C59.6049 83.9246 59.4204 82.7922 59.1855 81.7102C58.9087 80.1584 58.6403 78.5899 58.5145 77.013C58.4139 75.5032 58.4306 73.9514 58.3887 72.4416C58.3384 72.2487 58.3971 71.5357 58.3551 70.9821C59.4539 70.8982 60.5528 70.9234 61.6432 70.9821C63.3627 71.1079 65.1577 71.3763 66.7933 70.6634C68.1354 70.0846 69.209 68.9942 69.7542 67.6354C70.8027 65.1022 69.1335 62.3594 67.2798 60.6734C65.8707 59.4824 64.1008 58.7946 62.2807 58.5178C57.4912 57.8132 52.1062 59.5914 48.6588 62.9885C45.9998 65.6726 46.2766 70.9821 50.2776 72.1564C52.7772 72.9449 55.0755 71.6196 57.4912 71.0744C57.5164 71.0744 57.5331 71.066 57.5583 71.066C57.2396 72.2738 57.3234 73.6075 57.2563 74.8489C57.1976 77.2478 57.4912 79.6384 57.919 81.9954C58.3719 83.8407 58.7578 86.1138 57.3486 87.6907C55.8723 89.1334 53.876 90.0561 51.8042 90.1232C50.437 90.3077 49.1285 90.0393 47.9374 89.3263C47.6103 89.0999 47.1154 89.0579 46.8889 89.4605C46.2347 90.5174 49.3717 91.3981 50.1183 91.3814C52.1314 91.4401 54.2619 91.2388 55.9311 90.0142C57.3318 89.125 58.7578 88.043 59.2107 86.3654C60.2676 88.6385 62.5407 90.3413 65.1325 90.2742C67.0533 90.249 69.2426 89.9638 70.6769 88.5798C71.2724 88.0011 70.6266 87.0365 69.9052 87.3636Z" fill="black"/>
<path d="M38.0587 53.3511C37.6142 53.3511 37.2451 53.7202 37.2451 54.1647C37.2451 54.6093 37.6142 54.9783 38.0587 54.9783C38.5033 54.9783 38.8724 54.6093 38.8724 54.1647C38.8724 53.7202 38.5033 53.3511 38.0587 53.3511ZM74.6633 50.5747C74.2943 50.5747 73.9839 50.8851 73.9839 51.2541C73.9839 51.6232 74.2943 51.9335 74.6633 51.9335C75.0324 51.9335 75.3427 51.6232 75.3427 51.2541C75.3427 50.8851 75.0324 50.5747 74.6633 50.5747Z" fill="white"/>
<path d="M55.394 105.163C61.6933 105.431 67.9841 104.416 73.9731 102.47C78.3348 101.203 82.6293 99.3917 86.3284 96.716C88.677 94.9545 91.0256 93.1344 92.8709 90.8277C93.7097 89.6702 94.3639 88.3868 94.993 87.1035C95.6221 85.6943 96.2344 84.2684 96.8971 82.876C96.9809 82.7083 96.8803 82.4986 96.7125 82.4231C96.5616 82.356 96.3603 82.4147 96.2764 82.5657C95.6641 83.74 95.0517 84.9143 94.473 86.1053C93.7348 87.4558 92.9296 88.7475 91.9818 89.9637C90.5223 91.5826 88.8363 92.9918 87.0497 94.2416C85.0786 95.7514 83.0068 97.127 80.7588 98.1838C76.5985 100.314 71.8426 101.614 67.2628 102.68C60.0828 104.081 52.7099 103.946 45.5215 102.537C41.1598 101.74 37.0665 100.205 33.2249 97.9406C30.6246 96.4056 28.2341 94.6777 26.1959 92.3207C24.2415 90.098 22.8659 87.439 21.9181 84.6459C21.4064 83.1109 20.8863 81.5507 20.7605 79.9235C20.6515 77.9188 21.0877 75.9141 21.4064 73.901C21.4232 73.6745 21.6413 72.8022 21.2302 72.8945C21.1044 72.9448 21.0625 73.1293 21.0289 73.2468C20.9367 73.5403 20.8444 73.8339 20.7521 74.1359C20.1482 76.0064 19.6198 77.944 19.5443 79.9151C19.6533 83.7735 21.2722 88.11 23.3859 91.331C25.6339 94.7113 28.8296 97.278 32.3274 99.2994C39.2474 103.477 47.3836 105.053 55.394 105.163ZM20.3663 29.0428C20.9702 31.9617 22.3626 34.973 24.6357 37.0196C25.5416 37.8165 26.5482 38.7307 27.756 38.974C27.8986 38.9824 28.0747 38.9824 28.1754 38.8733C28.4857 38.4539 27.2779 37.7577 27.0011 37.4474C23.755 34.6626 22.111 31.1733 21.549 26.9542C21.2386 25.0502 21.1883 23.0287 20.3411 21.2588C19.9972 20.6885 19.2339 19.8581 18.5042 20.0594C18.0009 20.2523 18.0093 21.0156 18.5042 21.2169C19.9134 21.9466 19.7456 24.7063 19.9721 26.1154C20.0392 27.1052 20.165 28.0782 20.3663 29.0428ZM21.0709 64.0453C21.1631 65.4293 21.1631 66.8133 21.1296 68.1973C21.1464 68.927 22.2032 68.8935 22.2116 68.1973C22.2871 66.5197 22.3962 64.8337 22.2703 63.1562C22.0187 60.1449 22.1697 57.1001 22.7149 54.1308C23.3524 51.0609 24.5267 48.1335 25.9107 45.3236C27.0095 43.1092 28.5696 41.0122 30.3814 39.3095C31.2789 38.4539 32.1932 37.6571 33.1326 36.8351C33.292 36.6757 33.6191 36.508 33.6359 36.2395C33.5352 35.2917 30.3982 37.6487 30.0039 38.0262C27.5211 40.0057 25.6506 42.6563 24.2583 45.4914C21.1464 51.6145 20.274 57.2427 21.0709 64.0453ZM86.2277 34.4026C86.169 34.6123 86.471 34.7213 86.5716 34.5452C89.1383 32.4315 90.3797 26.5851 90.3378 23.3474C90.4468 21.5524 89.3899 16.7713 90.4216 15.6222C91.0256 15.1105 91.6798 16.461 92.2418 15.748C92.7451 14.9763 91.3192 14.3473 90.7068 14.3556C89.5829 14.3137 88.8951 15.4293 88.7189 16.4274C88.1318 19.5645 88.9873 22.6512 88.7273 25.8386C88.4757 28.7324 87.7543 31.8611 86.2277 34.4026ZM85.867 36.7428C87.033 38.152 88.2324 39.5695 89.0964 41.1884C91.4869 46.1372 92.0657 51.69 93.8774 56.8317C93.9697 57.1337 94.2885 57.3182 94.5904 57.2343C94.8924 57.1505 95.0853 56.8233 94.993 56.5214C94.6995 55.4729 94.3975 54.4244 94.1626 53.3592C93.5252 49.182 92.5522 45.03 90.7656 41.18C89.1467 37.9926 86.58 35.3085 83.7114 33.2031C83.4094 33.0102 80.893 31.2991 81.1782 32.4147C81.8325 33.1277 82.7048 33.6309 83.4094 34.2936C84.2734 35.0653 85.0954 35.8789 85.867 36.7428ZM95.9409 123.683C95.7228 123.591 95.4963 123.7 95.3956 123.901C95.1356 124.421 94.884 124.941 94.6324 125.461C93.76 127.214 92.8877 128.967 92.3173 130.846C91.7218 132.675 91.2185 134.545 90.8327 136.432C90.0442 141.625 89.0964 146.506 83.8707 149.006C83.6191 149.157 83.2249 149.216 83.1074 149.518C83.032 149.845 83.4681 149.912 83.6946 149.92C86.8988 149.819 89.3228 146.708 90.43 143.948C91.4701 141.297 91.7385 138.446 92.2586 135.678C92.6948 133.623 93.198 131.576 93.8607 129.571C94.5065 127.743 95.3453 125.981 96.1673 124.22C96.2596 124.018 96.1422 123.767 95.9409 123.683ZM129.106 115.236C127.295 110.069 122.346 108.836 117.464 110.254C114.486 110.925 111.819 112.502 109.47 114.414C105.746 117.258 102.794 120.982 100.328 124.949C98.9018 127.248 97.7107 129.731 96.8803 132.306C96.0415 134.914 95.5382 137.758 96.0499 140.492C96.4022 142.371 97.2326 144.367 98.9102 145.416C99.0108 145.483 99.1199 145.542 99.2457 145.567C99.3631 145.592 99.4973 145.567 99.5896 145.483C99.707 145.374 99.7154 145.189 99.6567 145.047C99.598 144.904 99.4889 144.778 99.3883 144.661C99.1534 144.384 99.0024 143.982 98.8179 143.663C98.6166 143.31 98.4572 142.916 98.2978 142.564C97.9791 141.834 97.7275 141.071 97.5681 140.299C97.2494 138.798 97.2578 137.246 97.4842 135.728C97.6939 134.31 98.0965 132.943 98.5411 131.584C99.4386 128.841 100.856 126.224 102.492 123.834C104.077 121.469 105.939 119.12 108.086 117.208C110.351 115.22 112.842 113.131 115.761 112.066C118.957 111.017 122.975 110.162 125.802 112.519C128.704 115.077 129.174 119.439 128.427 123.037C127.513 127.273 124.753 130.804 122.061 134.101C120.752 135.627 119.586 137.246 118.529 138.957C118.387 139.175 118.739 139.41 118.882 139.2C120.526 136.76 122.472 134.554 124.342 132.28C126.565 129.739 128.737 126.963 129.551 123.616C130.281 120.856 130.113 117.912 129.106 115.236ZM78.9722 149.887C78.5948 150.012 78.2089 150.105 77.8231 150.189C76.0281 150.6 74.1408 150.39 72.3794 149.903C71.8509 149.761 71.3309 149.593 70.8276 149.392C70.685 149.341 70.5173 149.257 70.3663 149.291C70.1566 149.367 70.2656 149.66 70.3831 149.778C71.5741 150.994 73.3775 151.371 75.0048 151.598C76.7578 151.824 78.6032 151.547 80.1717 150.742C80.4737 150.583 80.5659 150.172 80.3982 149.887C80.0627 149.333 79.4336 149.719 78.9722 149.887ZM69.4688 124.144C69.4269 124.01 69.3933 123.826 69.2339 123.792C68.6887 123.708 68.9571 124.941 68.8984 125.319C68.8816 127.365 69.0578 129.429 68.6132 131.442C68.2693 133.228 67.5899 134.906 66.8769 136.567C66.8602 136.567 66.8518 136.55 66.835 136.55C65.342 136.391 63.8573 136.189 62.3811 135.921C60.0828 135.493 58.0026 134.394 55.9056 133.413C53.1544 132.02 50.6297 130.276 48.1553 128.447C46.4861 127.231 44.7582 126.09 43.1142 124.84C40.472 122.853 37.8046 120.848 35.5903 118.373C33.032 115.337 30.9014 111.453 29.9368 107.595C29.6852 106.32 29.5258 105.037 29.4252 103.745C29.3078 102.722 29.442 101.606 29.0897 100.625C28.989 100.491 28.7625 100.616 28.8045 100.792C28.7206 103.032 28.6535 105.238 28.8967 107.486C29.3749 111.512 31.3544 115.748 33.8959 118.902C36.9239 122.458 40.9417 124.966 44.6827 127.701C49.9083 131.232 55.0165 135.426 61.3242 136.827C62.9766 137.145 64.8303 137.204 66.5414 137.364C65.6691 139.402 64.8303 141.457 64.5703 143.696C64.2348 145.818 65.2665 147.639 66.5582 149.224C66.7344 149.45 67.0699 149.492 67.2963 149.316C67.7493 148.972 67.3215 148.461 67.0866 148.142C66.4743 147.219 65.8704 146.196 65.7949 145.055C65.7278 143.654 66.0382 142.312 66.5498 140.979C67.5731 138.353 68.8733 135.829 69.5778 133.086C70.2321 130.695 70.0727 128.263 69.754 125.805C69.6785 125.251 69.6198 124.689 69.4688 124.144ZM55.1339 142.757C53.9009 144.409 51.6698 146.171 48.3062 147.79C44.9343 149.408 38.5512 150.398 34.4998 149.291C30.4485 148.184 29.249 144.871 29.6517 141.952C29.8949 140.215 31.5641 136.701 32.168 135.074C32.579 133.966 32.0338 134.344 32.0338 134.344C32.0338 134.344 28.5696 140.148 28.3851 142.53C28.2089 144.913 28.7458 149.274 35.4896 150.482C42.2334 151.69 49.8077 148.746 52.2989 146.842C55.7127 144.233 57.1554 140.727 57.1554 140.727C58.0529 138.949 56.3754 141.104 55.1339 142.757Z" fill="black"/>
</g>
<defs>
<clipPath id="clip0_1989_7486">
<rect width="151.074" height="161.894" fill="white" transform="translate(0.0849609 0.977539)"/>
</clipPath>
</defs>
</svg>
